<?xml version="1.0" encoding="utf-8"?>
<!-- Generator: Adobe Illustrator 21.1.0, SVG Export Plug-In . SVG Version: 6.00 Build 0)  -->
<svg version="1.1" id="Layer_1" xmlns="http://www.w3.org/2000/svg" xmlns:xlink="http://www.w3.org/1999/xlink" x="0px" y="0px"
	 viewBox="0 0 191.71 93.899" style="enable-background:new 0 0 191.71 93.899;" xml:space="preserve">
<style type="text/css">
	.st0{fill:#FFE05C;}
	.st1{fill:#C5E0D7;}
</style>
<g>
	<path class="st0" d="M121.093,69.231c-4.108,9.43-15.083,13.745-24.514,9.637c-9.43-4.108-13.744-15.084-9.636-24.514
		c4.108-9.43,15.083-13.745,24.513-9.637C120.887,48.826,125.201,59.801,121.093,69.231"/>
	<path class="st0" d="M172.39,69.231c-4.108,9.43-15.083,13.745-24.514,9.637c-9.43-4.108-13.744-15.084-9.636-24.514
		c4.108-9.43,15.083-13.745,24.513-9.637C172.184,48.826,176.498,59.801,172.39,69.231"/>
	<path class="st0" d="M75.714,71.258c-0.025,4.105-3.217,7.268-7.37,7.303c-4.014,0.033-7.374-3.28-7.409-7.306
		c-0.034-3.935,3.361-7.281,7.422-7.315C72.394,63.907,75.739,67.234,75.714,71.258"/>
	<path class="st0" d="M54.706,57.855c-0.649-8.928-7.211-15.667-16.987-16.931c-12.657-1.636-22.435,5.735-23.551,17.754
		c-0.067,0.731-0.001,1.405-0.005,2.11l11.942-0.128c0-0.054-0.028-0.095-0.028-0.151c0.009-4.822,3.465-8.229,8.353-8.235
		c3.964-0.004,6.944,2.197,7.998,5.581H54.706z"/>
	<path class="st1" d="M42.435,63.292c-1.031,3.307-3.933,5.495-7.828,5.574c-4.887,0.099-8.415-3.233-8.527-8.055
		c-0.001-0.055,0.025-0.096,0.025-0.151l-11.942,0.128c0.019,0.704-0.033,1.38,0.05,2.109C15.585,74.89,25.518,82.05,38.138,80.144
		c9.586-1.448,15.949-8.126,16.592-16.852H42.435z"/>
	<rect x="62.269" y="17.11" class="st1" width="12.112" height="40.924"/>
	<rect x="140.137" y="17.11" class="st1" width="12.112" height="40.924"/>
	
		<rect x="107.692" y="51.029" transform="matrix(0.7071 -0.7071 0.7071 0.7071 -17.2358 101.3714)" class="st1" width="12.112" height="40.924"/>
</g>
</svg>
